<svg xmlns="http://www.w3.org/2000/svg" viewBox="0 0 64 64">
  <defs>
    <linearGradient id="bg" x1="0" y1="0" x2="1" y2="1">
      <stop offset="0" stop-color="#ff8a1f"/>
      <stop offset="1" stop-color="#e5470a"/>
    </linearGradient>
  </defs>
  <rect width="64" height="64" rx="14" fill="url(#bg)"/>
  <!-- top-down F1 car, nose up -->
  <g fill="#fff">
    <rect x="12" y="6" width="40" height="5" rx="1.5"/>
    <path d="M29.5 9h5l1.2 13h-7.4z"/>
    <rect x="11" y="13" width="7" height="11" rx="2"/>
    <rect x="46" y="13" width="7" height="11" rx="2"/>
    <path d="M27 21h10l3.5 9 4 3v10l-4 4-2.5 5h-11l-2.5-5-4-4V33l4-3z"/>
    <rect x="9" y="36" width="8" height="14" rx="2.5"/>
    <rect x="47" y="36" width="8" height="14" rx="2.5"/>
    <rect x="16" y="53" width="32" height="6" rx="1.5"/>
  </g>
  <circle cx="32" cy="33" r="3.2" fill="#e5470a"/>
</svg>
